<?xml version="1.0" encoding="UTF-8"?>
<svg id="uuid-8df5bb6b-7162-4e29-abe9-dcba6d5a9ada" data-name="Capa 1" xmlns="http://www.w3.org/2000/svg" viewBox="0 0 1884.21 310">
  <defs>
    <style>
      .uuid-d6257e33-6249-4506-8d66-124d35c81f08 {
        fill: #fff;
      }

      .uuid-d2bb6bc2-a8ba-429a-9b89-9deffe458b69 {
        fill: #ff0;
      }
    </style>
  </defs>
  <g>
    <path class="uuid-d6257e33-6249-4506-8d66-124d35c81f08" d="M43.47,107.74c15.07,0,29.56-1.45,43.76-1.45,64.91,0,95.91,31.88,95.91,95.91,0,68.39-48.97,104.03-105.77,104.03-12.46,0-25.21-1.45-38.83-1.45-11.88,0-24.63.29-38.54,1.45,1.16-25.5,2.32-51.29,2.32-71.28v-57.38c0-19.99-1.16-45.78-2.32-71.28,15.36.87,29.85,1.45,43.47,1.45ZM26.08,177.29v57.96c0,12.75.29,35.35,1.74,57.37,6.66,1.45,24.63,2.9,37.67,2.9,59.4,0,89.25-31.01,89.25-93.31s-24.05-83.74-83.45-83.74c-14.2,0-28.69.87-43.47,2.9-1.45,19.12-1.74,42.02-1.74,55.93Z"/>
    <path class="uuid-d6257e33-6249-4506-8d66-124d35c81f08" d="M284.56,102.53l35.06,83.45c27.82,66.94,46.65,109.53,52.16,120.26-5.51-1.16-9.85-1.45-15.36-1.45s-10.72.58-15.36,1.45c-6.66-22.02-18.26-49.84-29.85-77.66-12.46-.87-25.21-.58-37.67-.58s-24.34.58-35.64.58c-16.23,39.12-23.47,60.85-28.11,77.66-4.35-1.16-7.25-1.45-10.72-1.45s-6.95.29-10.72,1.45c24.05-52.74,65.2-145.18,90.7-203.71h5.51ZM243.41,215.25c6.96,0,17.97.58,31.88.58,6.66,0,21.73-.58,31.88-.58l-32.16-73.6-31.59,73.6Z"/>
    <path class="uuid-d6257e33-6249-4506-8d66-124d35c81f08" d="M551.73,115.86c-2.03,2.9-4.64,15.07-6.09,22.6l-1.74.58c-14.78-16.23-34.19-25.79-55.06-25.79-49.84,0-80.27,33.9-80.27,93.02s30.43,93.02,80.27,93.02c18.84,0,36.8-6.66,58.83-24.05l1.16,1.16-2.61,17.1c-13.91,9.85-38.54,16.52-60.27,16.52-60.27,0-105.77-38.25-105.77-102.29s42.6-105.19,108.67-105.19c22.02,0,43.18,4.35,62.88,13.33Z"/>
    <path class="uuid-d6257e33-6249-4506-8d66-124d35c81f08" d="M620.12,107.74c11.59,0,22.31-1.45,33.03-1.45,39.7,0,60.56,15.65,60.56,45.78,0,28.11-22.31,49.55-59.4,55.35l36.22,45.79c21.73,27.53,36.22,44.91,43.18,53.03-6.66-1.16-11.59-1.45-17.39-1.45s-11.88.29-16.81,1.45c-22.6-32.74-55.64-75.92-75.05-96.2h-11.01v24.92c0,19.71,1.16,45.78,2.32,71.28-4.93-.87-9.56-1.45-14.2-1.45s-8.69.58-14.2,1.45c1.16-25.5,2.32-51.29,2.32-71.28v-57.38c0-19.99-1.16-45.78-2.32-71.28,11.88.87,22.6,1.45,32.74,1.45ZM613.46,177.58v20.29c5.8,1.16,12.46,1.45,19.13,1.45,33.9,0,55.64-16.23,55.64-44.33,0-24.34-16.23-37.96-46.36-37.96-8.98,0-15.36.29-26.66,1.45,0,4.06-1.74,44.33-1.74,59.11Z"/>
    <path class="uuid-d6257e33-6249-4506-8d66-124d35c81f08" d="M778.63,107.74c4.64,0,9.56-.58,14.2-1.45-1.16,25.79-2.32,51.58-2.32,71.28v57.38c0,19.71,1.16,45.78,2.32,71.28-4.93-1.16-9.56-1.45-14.2-1.45s-8.69.29-14.2,1.45c1.16-25.5,2.32-51.29,2.32-71.28v-57.38c0-19.99-1.16-45.78-2.32-71.28,5.51.87,9.56,1.45,14.2,1.45Z"/>
    <path class="uuid-d6257e33-6249-4506-8d66-124d35c81f08" d="M942.64,116.14c-3.77,6.96-5.51,13.62-7.82,24.34h-3.48c-6.95-18.25-18.55-27.24-34.48-27.24-22.02,0-37.38,15.07-37.38,35.93,0,19.42,9.27,30.71,44.62,43.76,34.48,13.04,46.65,26.95,46.65,51.87,0,37.38-28.4,65.2-71,65.2-18.55,0-33.03-4.64-47.81-16.52,2.61-6.66,4.35-12.75,5.51-25.79h3.48c8.98,18.84,25.21,30.14,45.78,30.14,24.34,0,41.44-17.38,41.44-42.02,0-19.42-11.59-30.43-35.93-39.7-34.19-13.33-55.35-24.92-55.35-58.83s25.79-54.77,62.88-54.77c18.55,0,31.3,4.35,42.89,13.62Z"/>
    <path class="uuid-d6257e33-6249-4506-8d66-124d35c81f08" d="M1064.92,102.53l35.06,83.45c27.82,66.94,46.65,109.53,52.16,120.26-5.51-1.16-9.85-1.45-15.36-1.45s-10.72.58-15.36,1.45c-6.66-22.02-18.26-49.84-29.85-77.66-12.46-.87-25.21-.58-37.67-.58s-24.34.58-35.64.58c-16.23,39.12-23.47,60.85-28.11,77.66-4.35-1.16-7.25-1.45-10.72-1.45s-6.95.29-10.72,1.45c24.05-52.74,65.2-145.18,90.7-203.71h5.51ZM1023.78,215.25c6.96,0,17.97.58,31.88.58,6.66,0,21.73-.58,31.88-.58l-32.16-73.6-31.59,73.6Z"/>
    <path class="uuid-d2bb6bc2-a8ba-429a-9b89-9deffe458b69" d="M1231.14,140.11c12.92,0,29.92-.96,46.44-.96,27.29,0,42.37,13.64,42.37,39.49,0,19.39-9.81,37.34-23.94,45.96-12.69,7.9-31.6,10.29-44.28,10.29-4.07,0-11.73-.24-21.06-1.44-5.51,23.46-11.25,53.86-13.4,71.33-6.46-.72-14.36-1.2-22.02-1.2s-13.88.48-21.3,1.2c6.94-24.65,14.36-55.29,22.26-95.03,7.66-39.02,12.21-58.88,12.69-70.61,7.42.72,14.36.96,22.26.96ZM1234.01,218.62c2.15,0,6.94.24,9.1.24,15.08,0,24.17-4.55,28.96-13.88,4.79-9.33,7.18-18.67,7.18-28,0-5.75-1.2-10.53-3.59-13.64-4.55-5.98-10.77-8.14-27.53-8.14-5.5,19.87-10.05,42.13-14.12,63.43Z"/>
    <path class="uuid-d2bb6bc2-a8ba-429a-9b89-9deffe458b69" d="M1377.63,140.35c7.42,0,13.88-.24,21.54-1.2-11.73,47.63-18.43,74.92-30.64,146.49h3.83c21.3,0,37.34-1.44,51.46-3.35-2.63,6.46-2.87,11.01-4.31,22.5-14.12-.96-26.33-1.2-47.15-1.2-23.94,0-41.89.24-52.18,1.2,12.21-41.17,31.6-137.16,35.66-165.64,8.38.96,14.84,1.2,21.78,1.2Z"/>
    <path class="uuid-d2bb6bc2-a8ba-429a-9b89-9deffe458b69" d="M1466.19,139.15c5.03.72,12.69,1.2,22.5,1.2,8.38,0,14.6,0,22.26-1.2-21.06,78.75-27.05,107.47-27.05,122.79,0,16.52,12.69,26.33,32.07,26.33,30.4,0,43.08-15.32,52.18-45.24,8.38-27.53,16.99-76.36,20.11-103.88,5.98.96,9.1,1.2,14.12,1.2,5.98,0,8.14-.24,13.64-1.2-4.31,13.88-9.57,33.51-13.88,54.1-12.69,61.99-19.39,78.03-27.77,88.56-7.18,9.09-21.3,26.57-63.19,26.57s-67.02-18.67-67.02-47.87c0-23.46,16.52-74.68,22.02-121.35h0Z"/>
    <path class="uuid-d2bb6bc2-a8ba-429a-9b89-9deffe458b69" d="M1745.77,148c-4.79,9.82-7.66,18.19-10.53,30.64l-4.55.24c-4.07-16.52-15.32-26.09-33.03-26.09-15.08,0-25.37,7.9-25.37,20.83,0,15.08,18.19,25.61,39.49,44.76,12.93,11.49,20.11,21.54,20.11,37.82,0,22.74-16.52,51.94-62.23,51.94-18.91,0-35.19-4.07-52.42-11.49,2.15-5.75,5.74-25.13,5.98-34.23l5.74.24c4.55,18.43,20.59,28.96,39.02,28.96,16.28,0,27.29-8.14,27.29-20.35,0-9.33-5.51-15.56-14.84-23.94-2.63-2.39-11.49-9.09-21.78-17.71-14.12-11.97-21.06-25.13-21.06-40.21,0-23.46,16.75-52.9,60.32-52.9,16.52,0,33.27,4.07,47.87,11.49Z"/>
  </g>
  <path class="uuid-d2bb6bc2-a8ba-429a-9b89-9deffe458b69" d="M1817.78,0v66.42h66.43v34.83h-66.43v66.43h-34.83v-66.43h-66.43v-34.83h66.43V0h34.83Z"/>
</svg>