<?xml version="1.0" encoding="UTF-8"?>
<svg id="Capa_1" xmlns="http://www.w3.org/2000/svg" version="1.1" viewBox="0 0 1366 768">
  <!-- Generator: Adobe Illustrator 29.7.1, SVG Export Plug-In . SVG Version: 2.1.1 Build 8)  -->
  <defs>
    <style>
      .st0 {
        fill: #adb6c0;
        font-family: ArialMT, Arial;
      }

      .st0, .st1 {
        font-size: 17.51px;
      }

      .st2 {
        font-size: 23.46px;
      }

      .st2, .st1 {
        font-family: Arial-BoldMT, Arial;
        font-weight: 700;
      }

      .st2, .st3 {
        fill: #ff0;
      }

      .st4 {
        fill: #fff;
      }

      .st5 {
        fill: red;
      }

      .st6 {
        font-family: Arial-Black, Arial;
        font-size: 24.65px;
        font-weight: 800;
      }

      .st7 {
        fill: none;
        stroke: #adb6c0;
        stroke-miterlimit: 10;
      }
    </style>
  </defs>
  <rect class="st5" width="1366" height="768"/>
  <g>
    <g>
      <path class="st4" d="M502.66,219.63c3.1,0,6.07-.3,8.99-.3,13.34,0,19.71,6.55,19.71,19.71,0,14.05-10.06,21.38-21.74,21.38-2.56,0-5.18-.3-7.98-.3-2.44,0-5.06.06-7.92.3.24-5.24.48-10.54.48-14.65v-11.79c0-4.11-.24-9.41-.48-14.65,3.16.18,6.13.3,8.93.3ZM499.09,233.92v11.91c0,2.62.06,7.26.36,11.79,1.37.3,5.06.6,7.74.6,12.21,0,18.34-6.37,18.34-19.18s-4.94-17.21-17.15-17.21c-2.92,0-5.9.18-8.93.6-.3,3.93-.36,8.64-.36,11.49h0Z"/>
      <path class="st4" d="M552.21,218.56l7.21,17.15c5.72,13.76,9.59,22.51,10.72,24.71-1.13-.24-2.02-.3-3.16-.3s-2.2.12-3.16.3c-1.37-4.53-3.75-10.24-6.13-15.96-2.56-.18-5.18-.12-7.74-.12s-5,.12-7.32.12c-3.34,8.04-4.82,12.51-5.78,15.96-.89-.24-1.49-.3-2.2-.3s-1.43.06-2.2.3c4.94-10.84,13.4-29.84,18.64-41.86h1.13,0ZM543.75,241.72c1.43,0,3.69.12,6.55.12,1.37,0,4.47-.12,6.55-.12l-6.61-15.13-6.49,15.13h0Z"/>
      <path class="st4" d="M607.12,221.3c-.42.6-.95,3.1-1.25,4.64l-.36.12c-3.04-3.34-7.03-5.3-11.32-5.3-10.24,0-16.5,6.97-16.5,19.12s6.25,19.12,16.5,19.12c3.87,0,7.56-1.37,12.09-4.94l.24.24-.54,3.51c-2.86,2.02-7.92,3.39-12.39,3.39-12.39,0-21.74-7.86-21.74-21.02s8.75-21.62,22.33-21.62c4.53,0,8.87.89,12.92,2.74h0Z"/>
      <path class="st4" d="M621.17,219.63c2.38,0,4.58-.3,6.79-.3,8.16,0,12.45,3.22,12.45,9.41,0,5.78-4.58,10.18-12.21,11.37l7.44,9.41c4.47,5.66,7.44,9.23,8.87,10.9-1.37-.24-2.38-.3-3.57-.3s-2.44.06-3.45.3c-4.64-6.73-11.43-15.6-15.42-19.77h-2.26v5.12c0,4.05.24,9.41.48,14.65-1.01-.18-1.96-.3-2.92-.3s-1.79.12-2.92.3c.24-5.24.48-10.54.48-14.65v-11.79c0-4.11-.24-9.41-.48-14.65,2.44.18,4.64.3,6.73.3h0ZM619.8,233.98v4.17c1.19.24,2.56.3,3.93.3,6.97,0,11.43-3.34,11.43-9.11,0-5-3.34-7.8-9.53-7.8-1.85,0-3.16.06-5.48.3,0,.83-.36,9.11-.36,12.15h0Z"/>
      <path class="st4" d="M653.75,219.63c.95,0,1.96-.12,2.92-.3-.24,5.3-.48,10.6-.48,14.65v11.79c0,4.05.24,9.41.48,14.65-1.01-.24-1.96-.3-2.92-.3s-1.79.06-2.92.3c.24-5.24.48-10.54.48-14.65v-11.79c0-4.11-.24-9.41-.48-14.65,1.13.18,1.96.3,2.92.3Z"/>
      <path class="st4" d="M687.45,221.36c-.77,1.43-1.13,2.8-1.61,5h-.72c-1.43-3.75-3.81-5.6-7.09-5.6-4.53,0-7.68,3.1-7.68,7.38,0,3.99,1.91,6.31,9.17,8.99,7.09,2.68,9.59,5.54,9.59,10.66,0,7.68-5.84,13.4-14.59,13.4-3.81,0-6.79-.95-9.83-3.39.54-1.37.89-2.62,1.13-5.3h.72c1.85,3.87,5.18,6.19,9.41,6.19,5,0,8.52-3.57,8.52-8.64,0-3.99-2.38-6.25-7.38-8.16-7.03-2.74-11.37-5.12-11.37-12.09s5.3-11.26,12.92-11.26c3.81,0,6.43.89,8.81,2.8h0Z"/>
      <path class="st4" d="M712.58,218.56l7.21,17.15c5.72,13.76,9.59,22.51,10.72,24.71-1.13-.24-2.02-.3-3.16-.3s-2.2.12-3.16.3c-1.37-4.53-3.75-10.24-6.13-15.96-2.56-.18-5.18-.12-7.74-.12s-5,.12-7.32.12c-3.34,8.04-4.82,12.51-5.78,15.96-.89-.24-1.49-.3-2.2-.3s-1.43.06-2.2.3c4.94-10.84,13.4-29.84,18.64-41.86h1.13,0ZM704.13,241.72c1.43,0,3.69.12,6.55.12,1.37,0,4.47-.12,6.55-.12l-6.61-15.13-6.49,15.13h0Z"/>
      <path class="st3" d="M746.74,226.28c2.66,0,6.15-.2,9.54-.2,5.61,0,8.71,2.8,8.71,8.12,0,3.98-2.02,7.67-4.92,9.45-2.61,1.62-6.49,2.11-9.1,2.11-.84,0-2.41-.05-4.33-.3-1.13,4.82-2.31,11.07-2.75,14.66-1.33-.15-2.95-.25-4.53-.25s-2.85.1-4.38.25c1.43-5.07,2.95-11.36,4.57-19.53,1.57-8.02,2.51-12.1,2.61-14.51,1.52.15,2.95.2,4.57.2h0ZM747.33,242.42c.44,0,1.43.05,1.87.05,3.1,0,4.97-.94,5.95-2.85.98-1.92,1.48-3.84,1.48-5.75,0-1.18-.25-2.16-.74-2.8-.94-1.23-2.21-1.67-5.66-1.67-1.13,4.08-2.07,8.66-2.9,13.04h0Z"/>
      <path class="st3" d="M776.85,226.33c1.52,0,2.85-.05,4.43-.25-2.41,9.79-3.79,15.4-6.3,30.1h.79c4.38,0,7.67-.3,10.58-.69-.54,1.33-.59,2.26-.89,4.62-2.9-.2-5.41-.25-9.69-.25-4.92,0-8.61.05-10.72.25,2.51-8.46,6.49-28.19,7.33-34.04,1.72.2,3.05.25,4.48.25h0Z"/>
      <path class="st3" d="M795.05,226.08c1.03.15,2.61.25,4.62.25,1.72,0,3,0,4.57-.25-4.33,16.18-5.56,22.09-5.56,25.23,0,3.39,2.61,5.41,6.59,5.41,6.25,0,8.85-3.15,10.72-9.3,1.72-5.66,3.49-15.69,4.13-21.35,1.23.2,1.87.25,2.9.25,1.23,0,1.67-.05,2.8-.25-.89,2.85-1.97,6.89-2.85,11.12-2.61,12.74-3.98,16.04-5.71,18.2-1.48,1.87-4.38,5.46-12.99,5.46s-13.77-3.84-13.77-9.84c0-4.82,3.4-15.35,4.53-24.94h0Z"/>
      <path class="st3" d="M852.5,227.9c-.98,2.02-1.57,3.74-2.16,6.3l-.94.05c-.84-3.39-3.15-5.36-6.79-5.36-3.1,0-5.21,1.62-5.21,4.28,0,3.1,3.74,5.26,8.12,9.2,2.66,2.36,4.13,4.43,4.13,7.77,0,4.67-3.4,10.67-12.79,10.67-3.89,0-7.23-.84-10.77-2.36.44-1.18,1.18-5.16,1.23-7.03l1.18.05c.94,3.79,4.23,5.95,8.02,5.95,3.35,0,5.61-1.67,5.61-4.18,0-1.92-1.13-3.2-3.05-4.92-.54-.49-2.36-1.87-4.48-3.64-2.9-2.46-4.33-5.16-4.33-8.26,0-4.82,3.44-10.87,12.4-10.87,3.4,0,6.84.84,9.84,2.36h0Z"/>
    </g>
    <path class="st3" d="M867.3,197.49v13.65h13.65v7.16h-13.65v13.65h-7.16v-13.65h-13.65v-7.16h13.65v-13.65h7.16Z"/>
  </g>
  <rect class="st4" x="433.36" y="293.47" width="481.71" height="238.32" rx="6.13" ry="6.13"/>
  <text class="st6" transform="translate(585.68 341.07)"><tspan x="0" y="0">Iniciar sesión</tspan></text>
  <text class="st1" transform="translate(462.08 374.12)"><tspan x="0" y="0">Introduce tu clave de acceso:</tspan></text>
  <text class="st0" transform="translate(476.21 419.33)"><tspan x="0" y="0">Clave única</tspan></text>
  <rect class="st7" x="463.27" y="388.3" width="428.04" height="48.61" rx="9.66" ry="9.66"/>
  <rect class="st5" x="463.27" y="455.83" width="428.04" height="48.61" rx="9.6" ry="9.6"/>
  <text class="st2" transform="translate(625.87 489.29)"><tspan x="0" y="0">Acceder</tspan></text>
</svg>